# xmcd
#
# Track frame offsets:
# 182
# 20315
# 35397
#
# Disc length: 661 seconds
#
#
# Revision: 0
# Processed by: cddbd v1.4PL0 Copyright (c) Steve Scherf et al.
# Submitted via: FreeRIP 2.00 
#
DISCID=17029303
DTITLE=Paua Fritters - Harbour
DYEAR=1900
DGENRE=
TTITLE0=Harbour
TTITLE1=Is This The Life
TTITLE2=Hit And Run
EXTD=
EXTT0=
EXTT1=
EXTT2=
PLAYORDER=
